<?xml version="1.0" encoding="UTF-8"?>
<svg version="1.1" xmlns="http://www.w3.org/2000/svg" width="508" height="445">
<path d="M0 0 C167.64 0 335.28 0 508 0 C508 146.85 508 293.7 508 445 C340.36 445 172.72 445 0 445 C0 298.15 0 151.3 0 0 Z " fill="#E44046" transform="translate(0,0)"/>
<path d="M0 0 C58.74 0 117.48 0 178 0 C178 146.85 178 293.7 178 445 C10.36 445 -157.28 445 -330 445 C-330 392.86 -330 340.72 -330 287 C-327.8916002 290.16259969 -327.2183311 292.59752304 -326.25 296.25 C-324.08054791 303.46543694 -321.37749333 307.50708826 -315.375 311.9375 C-308.70738746 314.03656321 -301.67578087 313.25977806 -294.8125 312.4375 C-293.554375 312.293125 -292.29625 312.14875 -291 312 C-290.67 312.33 -290.34 312.66 -290 313 C-283.04067431 313.57079643 -277.07680159 313.59647441 -271 310 C-267.53804233 307.01012747 -265.16257689 304.01621423 -263 300 C-262.649375 299.38125 -262.29875 298.7625 -261.9375 298.125 C-260.63329999 295.1688133 -259.83873755 292.11531091 -259 289 C-258.13117188 288.91363281 -257.26234375 288.82726562 -256.3671875 288.73828125 C-249.38482548 287.88696418 -244.78762488 287.3195832 -240 282 C-237.93516941 277.87033882 -238.12934388 273.45130148 -239 269 C-244.96020664 259.06153496 -255.26017873 253.1734194 -265.9375 249.5625 C-271.57511946 247.5438471 -271.57511946 247.5438471 -273.46484375 245.125 C-274.06440965 243.76632705 -274.62075529 242.38762796 -275.12890625 240.9921875 C-277.25174029 236.13727556 -282.05601394 233.23491312 -286.8125 231.3125 C-290 230 -290 230 -292 227 C-293.48331454 220.09764303 -294.16151096 212.98405302 -293 206 C-290.55418069 202.42075223 -287.60873165 200.33506166 -284 198 C-283.32324219 197.46503906 -282.64648438 196.93007812 -281.94921875 196.37890625 C-280.125 194.9375 -280.125 194.9375 -277 193 C-273.4396853 194.18677157 -273.21734595 194.85612633 -271.43359375 198.015625 C-270.95317627 198.84843994 -270.47275879 199.68125488 -269.9777832 200.53930664 C-269.46948975 201.43383545 -268.96119629 202.32836426 -268.4375 203.25 C-263.48980349 211.72543641 -258.22774526 219.41929516 -252 227 C-251.27425781 227.90492188 -250.54851562 228.80984375 -249.80078125 229.7421875 C-247.56024086 232.51772227 -245.28611144 235.26189593 -243 238 C-242.56494141 238.52674316 -242.12988281 239.05348633 -241.68164062 239.59619141 C-231.38307199 252.0409004 -220.37255246 263.89445578 -207.65234375 273.90625 C-204.82680519 276.13671932 -202.10753308 278.46926946 -199.375 280.8125 C-187.30688301 290.84858187 -174.26858744 299.2661959 -160.75390625 307.2109375 C-159.98320801 307.66436523 -159.21250977 308.11779297 -158.41845703 308.58496094 C-156.69984805 309.59051895 -154.97632946 310.58770647 -153.24951172 311.57910156 C-152.35119629 312.10213867 -151.45288086 312.62517578 -150.52734375 313.1640625 C-149.7087085 313.63537598 -148.89007324 314.10668945 -148.04663086 314.59228516 C-145.06123139 316.64570438 -144.10623998 318.49882354 -143.36157227 322.01171875 C-143.18166748 323.22472656 -143.0017627 324.43773437 -142.81640625 325.6875 C-142.71537094 326.34524414 -142.61433563 327.00298828 -142.51023865 327.68066406 C-142.18722087 329.78610476 -141.87382907 331.89280138 -141.5625 334 C-141.15473479 336.75121016 -140.74062802 339.50127709 -140.31640625 342.25 C-140.21397614 342.91700928 -140.11154602 343.58401855 -140.00601196 344.27124023 C-139.20762885 349.23882118 -138.0072938 353.97972975 -136.46850586 358.765625 C-135.94594179 361.25781174 -136.12713086 362.6273743 -137 365 C-137.474375 365.61875 -137.94875 366.2375 -138.4375 366.875 C-140.32563376 369.44286191 -141.04816496 371.97555445 -142 375 C-142.57331055 375.00410889 -143.14662109 375.00821777 -143.73730469 375.01245117 C-158.61067807 375.19889037 -171.67033794 376.25460303 -183 387 C-189.40953428 393.90142877 -193.67168453 402.98088314 -194.1875 412.4375 C-193.93855732 417.167411 -193.25531858 419.70664146 -189.9375 423.125 C-180.68192443 429.03281419 -170.88510237 428.42652122 -160.33984375 428.36328125 C-158.62309266 428.36276169 -156.90634096 428.36328311 -155.18959045 428.36479187 C-151.60473664 428.36470253 -148.02010948 428.35434971 -144.43530273 428.33618164 C-139.8569564 428.31347876 -135.27894011 428.31295765 -130.70055294 428.31969929 C-127.15992842 428.32305182 -123.61937817 428.31638532 -120.07876778 428.30657005 C-118.39119417 428.3027412 -116.70361227 428.30156016 -115.01603508 428.3031559 C-112.65237757 428.30352972 -110.28913223 428.29081918 -107.92553711 428.2746582 C-106.89585312 428.27837433 -106.89585312 428.27837433 -105.84536743 428.28216553 C-98.15645427 428.19890876 -91.24856522 426.5332728 -85 422 C-80.88156072 415.49020888 -81.0837837 408.4082105 -82.62109375 401.01171875 C-85.0314173 392.75234338 -89.38720968 385.29899506 -95.72265625 379.39453125 C-97 378 -97 378 -97.375 374.75 C-98.14538826 370.12767045 -99.79107451 367.37064853 -103 364 C-104.0725 363.360625 -105.145 362.72125 -106.25 362.0625 C-109 360 -109 360 -109.63671875 356.55859375 C-110.12015894 351.38414499 -110.34410876 346.1912672 -110.5625 341 C-110.60568359 340.03449219 -110.64886719 339.06898438 -110.69335938 338.07421875 C-110.79841713 335.71625575 -110.90056914 333.35820584 -111 331 C-104.3671875 331.8671875 -104.3671875 331.8671875 -101.0625 333.0625 C-98.31758342 333.90278059 -96.61274616 334.10173456 -93.80859375 334.05859375 C-91.92333984 334.02958984 -91.92333984 334.02958984 -90 334 C-82 350 -82 350 -80.99169922 352.17675781 C-79.69429773 354.56203461 -78.47114651 354.94093721 -76 356 C-75.175 356.515625 -74.35 357.03125 -73.5 357.5625 C-69.00481606 360.14723077 -65.09217549 360.13584054 -59.9375 360.125 C-58.09478516 360.12886719 -58.09478516 360.12886719 -56.21484375 360.1328125 C-52.98214792 360.14782675 -52.98214792 360.14782675 -50 359 C-48.52413385 358.88312662 -47.04293388 358.82498258 -45.5625 358.8125 C-44.80066406 358.79832031 -44.03882813 358.78414063 -43.25390625 358.76953125 C-40.75698418 359.0248491 -39.19849689 359.8344935 -37 361 C-37.01571045 361.88147705 -37.0314209 362.7629541 -37.04760742 363.67114258 C-37.09924892 366.99428386 -37.13659553 370.31698847 -37.16479492 373.64038086 C-37.1797265 375.06883545 -37.20007938 376.49724548 -37.22631836 377.92553711 C-37.45376922 390.64048594 -36.44711644 404.6068985 -27.5546875 414.62890625 C-21.94736821 419.54631977 -16.13200344 421.58679966 -8.875 422.3125 C1.84250316 421.44818523 9.51917593 416.3687908 16.64257812 408.61230469 C29.81433789 392.96728643 33.35513721 371.85576699 33.375 352.0625 C33.39949219 350.78181641 33.42398437 349.50113281 33.44921875 348.18164062 C33.48922334 335.09347262 30.07205029 323.21886926 21.41015625 313.15234375 C15.45884655 307.45308952 8.16640878 305.89944253 0.125 305.5 C-7.67746744 305.68168747 -14.56762257 308.71174838 -21 313 C-23.05078125 313.30859375 -23.05078125 313.30859375 -25.3125 313.4375 C-32.34998569 314.11045244 -36.19005789 316.94956079 -41 322 C-46.07599141 326.50919336 -49.05710328 328.36883951 -55.8671875 328.28125 C-58 328 -58 328 -60.0625 326.3125 C-61.16704326 323.58795995 -61.37032141 321.91793057 -61 319 C-59.25024414 317.42944336 -59.25024414 317.42944336 -56.78515625 316.08984375 C-55.42668579 315.32667847 -55.42668579 315.32667847 -54.04077148 314.5480957 C-53.05794189 314.01659912 -52.0751123 313.48510254 -51.0625 312.9375 C-40.89451916 307.19294755 -31.36357568 300.96835593 -22 294 C-21.41428223 293.5659082 -20.82856445 293.13181641 -20.22509766 292.68457031 C-0.28855716 277.8334743 18.90791552 260.9828781 35 242 C35.91274313 240.92837069 36.82550504 239.85675738 37.73828125 238.78515625 C41.88630317 233.9043217 46.02183476 229.02161841 50 224 C54.04995998 224.31153538 56.78253323 225.35532607 60.1875 227.4375 C68.21951273 232.10821665 78.56169625 233.39052122 87.640625 231.4296875 C92.58405971 230.13267199 92.58405971 230.13267199 96.828125 227.4296875 C99.97882534 225.35566534 102.70332827 225.55222678 106.4375 225.4375 C111.20161184 225.28137717 114.62939024 224.81098675 119 223 C120.95406233 222.83398635 122.91447095 222.73489192 124.875 222.6875 C131.51803298 222.27372105 137.28907982 220.50812886 143.4765625 218.25 C146.50011909 217.17734134 149.44919696 216.37294067 152.5625 215.625 C157.57535797 214.17962595 160.19596391 211.2940036 163 207 C164.47899501 204.04200997 164.13178874 201.3516424 164.125 198.0625 C164.12886719 196.19271484 164.12886719 196.19271484 164.1328125 194.28515625 C164.15199431 190.99323703 164.15199431 190.99323703 163 188 C162.90756426 186.13485225 162.81846359 184.26935384 162.76000977 182.40283203 C162.52692012 175.48234554 161.84815329 170.83053528 158 165 C157.58448059 163.30554421 157.23409806 161.59426333 156.9375 159.875 C156.2407428 155.98378818 155.67887885 153.04837938 153 150 C141.29207289 143.81468002 128.54129719 145.76689144 116 148 C115.85304688 147.443125 115.70609375 146.88625 115.5546875 146.3125 C113.45811151 139.17932192 110.29556536 133.19704357 104 129 C101.26127045 128.54227937 101.26127045 128.54227937 98.3125 128.375 C96.82169922 128.26285156 96.82169922 128.26285156 95.30078125 128.1484375 C94.54152344 128.09945312 93.78226562 128.05046875 93 128 C93.01047363 127.10917725 93.02094727 126.21835449 93.03173828 125.30053711 C93.06632183 121.91769702 93.09113777 118.53505126 93.10986328 115.15209961 C93.11977108 113.70252472 93.13330114 112.25296897 93.15087891 110.8034668 C93.31101495 97.23429184 92.42503835 84.05802372 88.375 71 C88.11702637 70.15969238 87.85905273 69.31938477 87.59326172 68.45361328 C83.62595263 56.13037885 77.5263596 45.7618117 69 36 C68.47148437 35.32839844 67.94296875 34.65679687 67.3984375 33.96484375 C51.83552371 14.68369687 26.55134989 4.18760841 2.5 1.26171875 C1.2625 1.13216797 1.2625 1.13216797 0 1 C0 0.67 0 0.34 0 0 Z " fill="#FEFEFE" transform="translate(330,0)"/>
<path d="M0 0 C41.75066657 -0.06874778 83.50132658 -0.1215702 125.25203859 -0.15319599 C130.18715017 -0.15694787 135.12226164 -0.16083086 140.05737305 -0.16479492 C141.03981664 -0.16558185 142.02226024 -0.16636878 143.03447486 -0.16717956 C158.91772966 -0.18021423 174.8009517 -0.20385734 190.68418711 -0.23145839 C206.99599615 -0.25956664 223.30778811 -0.2761877 239.61962038 -0.28226548 C249.67542581 -0.2863707 259.73113864 -0.29931123 269.78691555 -0.3237494 C276.69345643 -0.33967358 283.59994981 -0.34438532 290.50650769 -0.34050413 C294.48427554 -0.33859293 298.46188218 -0.34140977 302.43962097 -0.35761642 C334.89849261 -0.48314032 362.03445053 2.92754583 388 24 C388.86496094 24.69867187 389.72992188 25.39734375 390.62109375 26.1171875 C410.05299068 42.66916211 421.02663862 66.70283118 423.76171875 91.87109375 C424.59774167 103.88246307 424.53264476 116.05763206 423 128 C423.71285156 127.93039063 424.42570312 127.86078125 425.16015625 127.7890625 C433.96606694 127.29128558 433.96606694 127.29128558 437.875 130.4375 C441.94741409 134.57860541 445.85369826 139.84786252 446.12890625 145.77734375 C446.06509766 146.87755859 446.06509766 146.87755859 446 148 C446.845625 147.690625 447.69125 147.38125 448.5625 147.0625 C459.39984439 143.71277537 472.1503094 143.44830858 482.375 148.75 C487.20650245 152.89128781 488.07792224 156.84443405 488.62109375 163.02734375 C488.92764721 165.31157854 488.92764721 165.31157854 491 168 C494.13813087 172.84880871 493.64859404 178.86506589 493.82421875 184.453125 C493.83892196 187.96490175 493.83892196 187.96490175 495 191 C495.90973901 203.00557217 495.90973901 203.00557217 493.375 208.5625 C492.199375 209.7690625 492.199375 209.7690625 491 211 C490.21625 211.86625 489.4325 212.7325 488.625 213.625 C484.52471672 216.88018673 479.43139131 217.80361804 474.453125 219.08984375 C471.68145969 219.82038449 469.1063251 220.66445038 466.4375 221.6875 C461.71616351 223.33509585 456.98288732 223.49343565 452.015625 223.69140625 C449.03155262 223.85134542 449.03155262 223.85134542 446.57421875 225.00390625 C442.12901958 226.72397573 437.41179816 226.35614575 432.69140625 226.4609375 C428.47299147 227.07695998 426.39377525 228.49780977 423 231 C414.32447012 234.55747067 403.79289997 233.62096057 395 231 C392.06341951 229.51239014 389.28336409 227.91342756 386.5078125 226.14453125 C384.07207659 224.82040644 384.07207659 224.82040644 381.4453125 225.015625 C378.15886363 226.33860442 376.88181942 228.1227088 374.75 230.9375 C371.0739246 235.64823239 367.263328 240.12862559 363.23828125 244.54296875 C361.76541193 246.15978342 360.30407575 247.787193 358.85546875 249.42578125 C350.48780325 258.87898173 341.65412374 267.85543015 332 276 C331.10539062 276.78375 330.21078125 277.5675 329.2890625 278.375 C314.26261167 291.46325997 297.98321932 302.62318742 281 313 C279.8965625 313.68578125 278.793125 314.3715625 277.65625 315.078125 C271.2786215 319 271.2786215 319 269 319 C270.30155006 323.07964281 270.30155006 323.07964281 272 327 C276.68721819 327.37497746 280.04875802 327.48459497 284.3125 325.3125 C287.03760973 323.12323583 287.03760973 323.12323583 288.9375 320.5 C292.00108933 316.78655839 295.7152988 315.1423506 300 313 C301.35281576 312.89703728 302.70742293 312.81691739 304.0625 312.75 C308.76725818 312.28860089 311.94352505 310.59929611 315.9609375 308.2109375 C323.57988426 303.68627563 332.74838192 303.95933962 341.1875 306 C349.86300674 309.04476919 354.90536133 314.9992919 358.9375 323.0625 C363.58775985 332.83574115 364.39033237 340.54384078 364.375 351.3125 C364.37412384 351.98162415 364.37324768 352.65074829 364.37234497 353.34014893 C364.2857229 373.38791193 360.40258282 394.92820626 346 410 C345.24847656 410.79148437 344.49695313 411.58296875 343.72265625 412.3984375 C337.09845125 418.86567082 330.59749334 422.32444046 321.375 423.4375 C312.77449894 422.32262023 305.46267938 419.26533765 299.875 412.4375 C294.63933749 405.09932735 291.87927888 396.00125048 291.8671875 387.015625 C291.86589844 386.07976562 291.86460937 385.14390625 291.86328125 384.1796875 C291.86714844 383.21289062 291.87101562 382.24609375 291.875 381.25 C291.87113281 380.29867188 291.86726563 379.34734375 291.86328125 378.3671875 C291.87132081 372.49831115 292.24549365 366.82047757 293 361 C290.05786285 360.22186944 287.48786156 359.86467729 284.4375 359.875 C283.67308594 359.87242187 282.90867187 359.86984375 282.12109375 359.8671875 C279.81001505 359.92092616 279.81001505 359.92092616 277 361 C265.84849504 361.72849027 259.02564603 360.70051133 250 354 C247.734375 351.01171875 247.734375 351.01171875 245.75 347.6875 C245.08484375 346.59824219 244.4196875 345.50898438 243.734375 344.38671875 C241.94082079 340.88444061 240.94378804 337.7992284 240 334 C238.865625 334.226875 237.73125 334.45375 236.5625 334.6875 C232.19014551 335.26321927 229.03377234 334.29120572 224.98046875 332.69140625 C222.87755516 331.8351981 222.87755516 331.8351981 220 332 C220.14070156 335.16691607 220.28851269 338.33346378 220.4375 341.5 C220.47681641 342.386875 220.51613281 343.27375 220.55664062 344.1875 C220.68119752 346.79361345 220.83369003 349.39624106 221 352 C221.0604248 353.15302612 221.0604248 353.15302612 221.12207031 354.3293457 C221.3768996 357.50197033 221.56224841 359.51808065 223.7421875 361.91796875 C224.44601563 362.33691406 225.14984375 362.75585938 225.875 363.1875 C229.29345511 365.4623932 231.38155251 367.09668547 233 371 C233.061875 372.0725 233.12375 373.145 233.1875 374.25 C234.24360472 379.12432948 236.63826296 381.25656685 240 384.81640625 C246.96142948 392.4168732 249.61477374 402.30663871 249.28515625 412.453125 C248.72689482 417.43924082 247.29234215 420.74166685 243.625 424.3125 C236.91497491 428.62608756 230.13277888 429.14851219 222.30151367 429.16113281 C221.55431564 429.16609772 220.80711761 429.17106262 220.03727722 429.17617798 C217.58083148 429.19070738 215.12445029 429.19758588 212.66796875 429.203125 C211.82416468 429.20595238 210.9803606 429.20877975 210.11098671 429.21169281 C205.64617223 429.22664765 201.18138976 429.23590067 196.71655273 429.24023438 C192.12361212 429.24571557 187.53096845 429.26974678 182.93812084 429.29820633 C179.38889225 429.31690222 175.83973425 429.32204198 172.29046059 429.32357025 C170.59811084 429.32658129 168.90576188 429.33455698 167.21346092 429.34775543 C146.10416518 429.50064969 146.10416518 429.50064969 139 423.0625 C138.443125 422.57910156 137.88625 422.09570312 137.3125 421.59765625 C134.34446491 417.9847802 134.71172887 413.46820255 135 409 C137.18355354 397.98970885 142.63891228 388.36491868 152 382 C164.71507251 374.85887923 164.71507251 374.85887923 171.88671875 374.90234375 C172.82451172 374.90556641 173.76230469 374.90878906 174.72851562 374.91210938 C175.70498047 374.92048828 176.68144531 374.92886719 177.6875 374.9375 C178.67556641 374.94201172 179.66363281 374.94652344 180.68164062 374.95117188 C183.12115474 374.96295697 185.56054689 374.97940989 188 375 C188.268125 373.741875 188.53625 372.48375 188.8125 371.1875 C189.63054206 367.81963487 190.51640481 366.40371347 193 364 C193.03270522 361.77429027 193.03270522 361.77429027 192.375 359.3125 C192.16488281 358.33023437 191.95476562 357.34796875 191.73828125 356.3359375 C191.49464844 355.23507812 191.25101563 354.13421875 191 353 C190.51182249 350.48089617 190.03325076 347.9599185 189.5625 345.4375 C189.43464111 344.77306885 189.30678223 344.1086377 189.17504883 343.42407227 C188.45907031 339.66307662 187.82554462 335.90315686 187.28125 332.11328125 C187.16064209 331.3025415 187.04003418 330.49180176 186.91577148 329.65649414 C186.68523068 328.08604443 186.46796642 326.51357173 186.26586914 324.93920898 C185.80511418 321.85260143 185.29138513 319.42445865 183.51171875 316.83203125 C179.62717954 313.99867372 175.46221509 311.74505479 171.25 309.4375 C161.76514245 304.12875623 152.79756444 298.37397255 144 292 C142.95714844 291.25234375 141.91429687 290.5046875 140.83984375 289.734375 C121.84291598 275.81831197 102.95334966 259.2914025 88.3046875 240.86328125 C86.26333991 238.32716636 84.15605809 235.86607098 82.01513672 233.4140625 C71.49827847 221.29769613 63.05202099 207.83754718 55 194 C50.67411378 195.44459339 47.72505028 197.63688335 44.25 200.5625 C42.80367187 201.77099609 42.80367187 201.77099609 41.328125 203.00390625 C39.62520797 204.46000081 39.62520797 204.46000081 38 206 C37.15942823 217.8161345 37.15942823 217.8161345 40 229 C42.4033238 230.53812723 44.83485629 231.66166478 47.453125 232.79296875 C51.29003528 234.61138175 53.31411521 236.70979113 56 240 C56.2371875 240.99257812 56.474375 241.98515625 56.71875 243.0078125 C57.75232935 246.28801661 57.75232935 246.28801661 61.125 247.65234375 C62.41047997 248.09895106 63.70270668 248.52646853 65 248.9375 C75.93237889 252.85441369 85.46758262 259.20137393 92 269 C92.64450787 273.32159488 92.94472568 277.89545484 91.125 281.94921875 C87.66837092 286.46330344 83.05121337 288.50363036 77.55078125 289.3984375 C75.3673341 289.65208756 73.19312877 289.85578065 71 290 C70.731875 291.19625 70.46375 292.3925 70.1875 293.625 C68.34282596 300.93919707 65.08685855 306.68485609 59 311.25 C54.48281997 313.88502168 51.02081219 314.13768773 45.8125 314.125 C44.74644531 314.12757813 43.68039063 314.13015625 42.58203125 314.1328125 C40 314 40 314 39 313 C36.91245655 313.23955417 34.8250414 313.48027821 32.73828125 313.7265625 C23.18845756 314.68018255 17.05157888 314.83826727 9.421875 308.73828125 C1.29736376 300.92151664 -0.22122434 288.33123076 -0.55244601 277.65172386 C-0.63109554 272.05997352 -0.62407356 266.47114875 -0.58032811 260.87911201 C-0.55848578 257.3687983 -0.56606008 253.85852246 -0.56983948 250.34815979 C-0.57244566 244.28435632 -0.55692289 238.22082441 -0.52865028 232.15708923 C-0.48780128 223.39028146 -0.47497134 214.62360335 -0.46871033 205.85671073 C-0.45780047 191.62884624 -0.42461671 177.40112609 -0.37719727 163.17333984 C-0.33121559 149.36247473 -0.29586596 135.55164899 -0.2746582 121.74072266 C-0.27334459 120.8876585 -0.27203097 120.03459435 -0.27067754 119.15567976 C-0.26415177 114.87558171 -0.25783337 110.59548338 -0.25161803 106.31538486 C-0.19988821 70.87682042 -0.11191381 35.43842359 0 0 Z M248 37 C247.1440625 37.87011719 246.288125 38.74023438 245.40625 39.63671875 C240.36610743 44.98767011 236.53593141 50.57556125 233 57 C231.67187957 59.3363376 230.33549625 61.66786476 229 64 C228.31035156 62.88882813 227.62070313 61.77765625 226.91015625 60.6328125 C221.53831844 52.08670689 216.1275953 44.20936504 209 37 C208.41863281 36.36964844 207.83726562 35.73929688 207.23828125 35.08984375 C196.20646623 23.38943388 180.39286565 15.21894011 165 11 C163.90171875 10.64550781 162.8034375 10.29101562 161.671875 9.92578125 C154.85379913 8.25801579 147.66712971 8.55873527 140.6875 8.5625 C139.92777893 8.56209717 139.16805786 8.56169434 138.38531494 8.5612793 C112.08153438 8.64174233 89.78388377 17.18206156 70.8125 35.8125 C53.52375857 53.33528236 40.78995707 78.05052241 40 103 C39.97421875 103.6919043 39.9484375 104.38380859 39.921875 105.09667969 C39.52451693 117.12172816 40.41983502 128.26396677 43 140 C43.29318889 141.42443387 43.58615586 142.84891344 43.87890625 144.2734375 C51.67450393 180.90440905 74.18869814 213.61013946 99 241 C99.64243652 241.70946777 100.28487305 242.41893555 100.94677734 243.14990234 C102.99625154 245.40098006 105.05742774 247.64054072 107.125 249.875 C107.77718506 250.58422607 108.42937012 251.29345215 109.10131836 252.02416992 C110.01409546 252.99833862 110.01409546 252.99833862 110.9453125 253.9921875 C111.48687988 254.57339355 112.02844727 255.15459961 112.58642578 255.75341797 C113.9358869 257.22047199 113.9358869 257.22047199 116 257 C116 257.66 116 258.32 116 259 C117.342554 260.43700222 117.342554 260.43700222 119.1875 261.9375 C119.92613281 262.56269531 120.66476563 263.18789063 121.42578125 263.83203125 C122.27527344 264.54746094 123.12476562 265.26289063 124 266 C125.38251953 267.21236328 125.38251953 267.21236328 126.79296875 268.44921875 C154.41696774 292.56469618 186.39440404 311.05115467 221 323 C221.85368164 323.29583984 222.70736328 323.59167969 223.58691406 323.89648438 C234.47386324 327.60624205 242.05491412 324.82973617 252.15966797 319.95898438 C287.98235916 302.14379159 325.65398176 276.75311041 351.50390625 245.74609375 C353.04235391 243.95056867 354.67293727 242.32780988 356.375 240.6875 C360.21516691 236.91652529 363.55018366 232.7805611 366.91015625 228.58203125 C368.57282504 226.52778065 370.28330353 224.57556384 372.0625 222.625 C374.2959778 219.59899782 374.5137835 218.6566081 374 215 C372.13462029 212.55673501 370.03473876 210.53513046 367.84765625 208.37890625 C365.49316621 205.3474381 364.89734152 203.85902548 365 200 C366.43830304 196.99948668 368.32988829 194.41299138 370.3125 191.75 C371.08110352 190.67105469 371.08110352 190.67105469 371.86523438 189.5703125 C373.79948095 186.87699394 375.65210636 184.34789364 378 182 C382.65885781 182.1800903 384.70642475 184.27098742 387.8125 187.5625 C388.60269531 188.38878906 389.39289063 189.21507812 390.20703125 190.06640625 C390.79871094 190.70449219 391.39039063 191.34257812 392 192 C406.95179519 179.25646995 413.66998143 145.67892164 416 127 C416.20680478 122.4180208 416.22793001 117.83764754 416.24023438 113.25170898 C416.24983701 111.09903754 416.28087185 108.94736592 416.3125 106.79492188 C416.52295574 79.23390653 407.23686946 53.86713726 388 34 C376.54652724 23.15418737 361.81705722 16.09655585 346.9375 11.3125 C346.27637207 11.09762939 345.61524414 10.88275879 344.93408203 10.66137695 C311.18910548 0.19817507 272.0195882 12.22773186 248 37 Z " fill="#070606" transform="translate(0,0)"/>
<path d="M0 0 C42.9 0 85.8 0 130 0 C130 0.33 130 0.66 130 1 C129.175 1.08636719 128.35 1.17273438 127.5 1.26171875 C106.63953176 3.79943196 88.22346151 11.60731843 72 25 C71.22398438 25.61230469 70.44796875 26.22460938 69.6484375 26.85546875 C46.89793289 45.70703529 36.11508939 74.39334186 33 103 C31.55846687 120.99419525 33.71255746 139.30681206 40.01806641 156.22900391 C42.71909454 163.49131458 42.71909454 163.49131458 42 167 C40.12890625 168.7734375 40.12890625 168.7734375 37.5625 170.375 C36.64726563 170.973125 35.73203125 171.57125 34.7890625 172.1875 C33.86867187 172.785625 32.94828125 173.38375 32 174 C22.2400363 181.00382777 11.07525989 189.46966637 8.38671875 201.81640625 C7.22338393 211.39335448 7.76632751 220.65166698 10 230 C10.63941122 232.80434684 10.90255234 235.07657015 11 238 C10.36320313 238.92039063 9.72640625 239.84078125 9.0703125 240.7890625 C6.70479272 244.45784979 6.36642377 246.81036005 6 251.125 C5.23272705 258.17693594 3.53459405 264.39283008 1 271 C0.67 271 0.34 271 0 271 C0 181.57 0 92.14 0 0 Z " fill="#FDFDFD" transform="translate(0,0)"/>
<path d="M0 0 C13.1004803 8.18540959 21.39370262 20.51406728 24.92578125 35.421875 C27.53833389 50.48524156 25.56364956 67.93543276 17.1796875 81.00390625 C10.16462533 90.5139328 1.54562602 98.33163917 -10.32421875 100.671875 C-23.23221509 101.97751141 -32.01376417 99.91216258 -42.50390625 92.03515625 C-52.07800456 83.24826158 -59.62801317 68.66771243 -60.32421875 55.671875 C-60.37449219 54.76566406 -60.42476562 53.85945313 -60.4765625 52.92578125 C-60.99845033 35.87048704 -57.13081845 20.42679597 -45.32421875 7.671875 C-42.48902011 5.04438322 -39.54905002 2.79971239 -36.32421875 0.671875 C-35.36322266 0.01832031 -35.36322266 0.01832031 -34.3828125 -0.6484375 C-24.52313645 -6.16676891 -9.80325998 -4.82705471 0 0 Z " fill="#FBFBFB" transform="translate(199.32421875,87.328125)"/>
<path d="M0 0 C7.64913434 4.73255794 13.88813731 11.11226447 18.71484375 18.6796875 C19.09253906 19.26878906 19.47023438 19.85789062 19.859375 20.46484375 C27.0554933 33.15911985 28.02038833 51.13877094 24.27612305 65.08056641 C20.01150596 79.004416 11.99324731 90.75845438 -1.01171875 97.671875 C-10.47158713 101.8654249 -21.09600202 102.23127454 -30.9140625 98.78125 C-45.34563467 92.07663163 -52.96476991 80.16000739 -58.390625 65.7421875 C-63.09522155 49.83932594 -60.94421942 32.83770982 -53.09765625 18.3671875 C-41.35878447 -0.25650782 -20.81561839 -10.10799576 0 0 Z " fill="#FBFBFB" transform="translate(303.28515625,85.3203125)"/>
<path d="M0 0 C1.29087706 14.7159985 -6.45694918 30.08079826 -15.609375 41.296875 C-27.15082316 54.72314514 -43.13431413 64.4523646 -61 66 C-80.9886742 67.19892736 -98.06605434 62.31680478 -113.65625 49.15625 C-124.58784449 39.09918307 -134.86643596 25.01003927 -136.30859375 9.73046875 C-136.3119303 7.13129411 -136.23336137 4.58771835 -136 2 C-131.02887568 2.57066478 -126.69923685 3.67461824 -122 5.375 C-105.77839502 11.02190305 -89.48044357 12.21663087 -72.4375 12.1875 C-71.29758606 12.18559662 -71.29758606 12.18559662 -70.13464355 12.18365479 C-47.9707945 12.11295763 -26.46786247 9.59790954 -6.2421875 -0.21484375 C-3.69032488 -1.10844024 -2.49971516 -0.92731369 0 0 Z " fill="#030101" transform="translate(298,202)"/>
<path d="M0 0 C4.9191549 3.00718148 7.73687828 5.7980346 10.2578125 11.015625 C10.99064453 12.49289062 10.99064453 12.49289062 11.73828125 14 C14.70301918 21.26838977 15.40314928 27.68629142 15.3203125 35.453125 C15.30907349 36.8445874 15.30907349 36.8445874 15.29760742 38.26416016 C14.99668876 57.55993905 10.19316954 76.82715074 -3.3046875 91.265625 C-8.67791206 96.28367031 -14.07806862 99.3194376 -21.4921875 99.828125 C-26.57073225 99.55336952 -30.17306179 97.62681642 -33.9296875 94.265625 C-39.83459376 87.60690092 -42.90249003 77.46668461 -43.4921875 68.703125 C-42.9296875 65.265625 -42.9296875 65.265625 -41.0546875 62.953125 C-31.53693684 57.81353964 -22.46409707 57.91273535 -11.9296875 58.265625 C-12.2596875 57.275625 -12.5896875 56.285625 -12.9296875 55.265625 C-21.7361765 54.83720121 -29.43287432 55.98800702 -37.9296875 58.265625 C-39.26250344 58.60102112 -40.59560301 58.93531081 -41.9296875 59.265625 C-42.25677218 49.61662694 -42.25677218 49.61662694 -39.9296875 46.265625 C-37.73236753 45.12757083 -35.49497125 44.21713274 -33.1953125 43.3046875 C-29.94017618 41.81181463 -28.18261959 40.02728369 -25.9296875 37.265625 C-25.9296875 36.605625 -25.9296875 35.945625 -25.9296875 35.265625 C-29.47487634 36.66322405 -29.47487634 36.66322405 -32.9296875 38.265625 C-35.1369798 38.33655342 -37.34636202 38.34977525 -39.5546875 38.328125 C-40.74320312 38.31910156 -41.93171875 38.31007813 -43.15625 38.30078125 C-44.07148438 38.28917969 -44.98671875 38.27757812 -45.9296875 38.265625 C-45.1665625 37.564375 -44.4034375 36.863125 -43.6171875 36.140625 C-39.93673758 32.20339951 -38.13250145 29.15855522 -37.5546875 23.765625 C-37.97751656 19.8192204 -38.72875706 17.56702067 -40.9296875 14.265625 C-43.97766123 11.89860441 -43.97766123 11.89860441 -46.9296875 10.265625 C-44.17290057 6.92406508 -42.79813928 5.38968954 -38.4296875 4.765625 C-33.30694137 5.49744588 -31.02920987 6.9828489 -27.6796875 10.890625 C-25.52313997 15.04968095 -25.13527247 18.63996312 -24.9296875 23.265625 C-23.9396875 22.935625 -22.9496875 22.605625 -21.9296875 22.265625 C-22.19311903 15.60080732 -23.05075931 11.82542208 -26.9296875 6.265625 C-27.1796875 3.640625 -27.1796875 3.640625 -25.9296875 1.265625 C-18.29666504 -4.9336816 -8.39502214 -4.02194977 0 0 Z " fill="#FBFBFB" transform="translate(341.9296875,315.734375)"/>
<path d="M0 0 C0.99 0 1.98 0 3 0 C6.44809017 3.8312113 6.37736065 7.65372252 6.23828125 12.55078125 C5.94416071 15.57395464 5.17688538 18.20489722 4 21 C5.485 21.495 5.485 21.495 7 22 C7.99 19.525 7.99 19.525 9 17 C14.19757238 19.12627961 16.33220256 23.26073632 19 28 C21.11226041 33.28065102 22.11619554 39.35280729 21 45 C16.65203146 50.21914892 11.48246718 50.97013175 5 52 C-0.07701249 52.38149849 -5.13470032 52.40029783 -10.22265625 52.36328125 C-11.65888976 52.36276076 -13.09512399 52.36328574 -14.53135681 52.36479187 C-17.52077061 52.36470287 -20.50991068 52.3544224 -23.49926758 52.33618164 C-27.30039674 52.31347648 -31.10112817 52.31296211 -34.90230656 52.31969929 C-37.86143938 52.32306564 -40.82048413 52.31635978 -43.77960014 52.30657005 C-45.18000259 52.30276511 -46.58041491 52.30154991 -47.98082161 52.3031559 C-68.53934925 52.3071005 -68.53934925 52.3071005 -75.1875 47.875 C-77.56060175 44.11076964 -77.93113154 41.25660133 -77 37 C-73.32782585 27.51595967 -67.5880145 19.66034014 -58.26757812 15.16430664 C-53.10625219 13.00501555 -48.55393903 12.5690286 -43 12.6875 C-42.24460938 12.68427734 -41.48921875 12.68105469 -40.7109375 12.67773438 C-33.6584817 12.74438129 -27.20206761 13.64904013 -21.375 17.9375 C-18.00671722 20.32506959 -14.74479094 22.27163495 -11 24 C-13.04801936 16.18028971 -17.89391526 11.828067 -24 7 C-23.67 5.68 -23.34 4.36 -23 3 C-22.21625 3.33 -21.4325 3.66 -20.625 4 C-14.65232973 5.64763318 -9.25565371 5.87060319 -3.4375 3.625 C-0.90826598 2.22998107 -0.90826598 2.22998107 0 0 Z " fill="#FBFBFB" transform="translate(220,370)"/>
<path d="M0 0 C3.18643352 2.02773042 4.73024144 3.08697102 5.8125 6.75 C5.874375 7.4925 5.93625 8.235 6 9 C3.36 9.33 0.72 9.66 -2 10 C-1.505 11.485 -1.505 11.485 -1 13 C-0.38253906 13.03738281 0.23492187 13.07476562 0.87109375 13.11328125 C7.01532148 13.59023043 12.25904584 14.80782059 18 17 C18.8146875 17.27714844 19.629375 17.55429687 20.46875 17.83984375 C28.42175477 20.69948898 36.59779655 25.53539416 41 33 C41.5 36.125 41.5 36.125 41 39 C39.5625 40.875 39.5625 40.875 37 42 C32.05907007 42.58074363 27.42411598 42.48856524 23 40 C22.67 39.34 22.34 38.68 22 38 C21.01 37.67 20.02 37.34 19 37 C19.495 38.2065625 19.495 38.2065625 20 39.4375 C21.62920368 45.2415381 21.95957875 50.50932461 19.5 56.125 C16.9020031 60.66465773 13.56504055 64.39481979 9 67 C5.89800197 67.53383222 3.10665123 67.4530533 0 67 C0.67170806 63.1936543 1.72746564 59.64793184 3 56 C-0.29690481 57.09896827 -0.74994946 57.71201136 -2.75 60.375 C-6.43652792 64.76458215 -9.9269431 66.64626683 -15.71484375 67.3125 C-20.03802286 67.4981936 -23.07710729 67.49090038 -26.9375 65.4375 C-35.04277619 55.85853723 -35.97019737 45.13345604 -35 33 C-33.49273284 26.63688837 -30.66815026 21.55429294 -26 17 C-23.00313201 15.43021201 -21.38755275 15 -18 15 C-18 14.01 -18 13.02 -18 12 C-19.43793392 12.31049726 -20.8753318 12.6234776 -22.3125 12.9375 C-23.11300781 13.11152344 -23.91351563 13.28554687 -24.73828125 13.46484375 C-27.145401 13.99886159 -27.145401 13.99886159 -30 15 C-30.31164384 8.14383562 -30.31164384 8.14383562 -28 5 C-25.3125 4.3125 -25.3125 4.3125 -22 4 C-16.52870524 3.34029742 -12.16524985 2.10405087 -7.21875 -0.29296875 C-4.41923113 -1.18506895 -2.78931161 -0.84317426 0 0 Z " fill="#FBFBFB" transform="translate(43,239)"/>
<path d="M0 0 C-0.33 1.65 -0.66 3.3 -1 5 C-2.38167358 4.9685791 -2.38167358 4.9685791 -3.79125977 4.93652344 C-7.28599513 4.8673944 -10.77998014 4.81774708 -14.27514648 4.78027344 C-15.77331168 4.76044502 -17.27140263 4.73337345 -18.76928711 4.69824219 C-40.13260631 4.21059341 -58.59731848 10.54444274 -74.38671875 25.2890625 C-90.98689889 41.74335557 -99.17915363 63.28421695 -104.19335938 85.62304688 C-104.39896484 86.51701172 -104.60457031 87.41097656 -104.81640625 88.33203125 C-104.99631104 89.13358643 -105.17621582 89.9351416 -105.36157227 90.76098633 C-106.00588185 93.02062809 -106.88244879 94.93843769 -108 97 C-109.32 97 -110.64 97 -112 97 C-112.4839655 95.45983306 -112.96192387 93.91777806 -113.4375 92.375 C-113.70433594 91.51648438 -113.97117188 90.65796875 -114.24609375 89.7734375 C-115.97818841 83.40148304 -116.18283345 77.31116268 -116.1875 70.75 C-116.19974609 69.85925781 -116.21199219 68.96851562 -116.22460938 68.05078125 C-116.26934482 47.50230102 -108.07413843 28.34765072 -93.8046875 13.75 C-70.28598862 -9.31011701 -29.00320232 -19.33546821 0 0 Z " fill="#040202" transform="translate(177,25)"/>
<path d="M0 0 C9.01301384 6.5723216 13.10908803 15.89720562 15.20703125 26.609375 C16.72265929 39.35984747 14.82280653 51.48967038 7.26953125 62.171875 C3.2157699 67.04056775 -0.88679278 71.15220774 -7.4296875 71.91796875 C-13.93822134 72.19297722 -18.10672559 71.84671069 -23.05078125 67.42578125 C-23.62570313 66.82636719 -24.200625 66.22695312 -24.79296875 65.609375 C-25.34726563 65.04089844 -25.9015625 64.47242188 -26.47265625 63.88671875 C-34.86701495 54.05153729 -35.40452681 41.89149941 -34.79296875 29.609375 C-32.3828125 29.94921875 -32.3828125 29.94921875 -29.79296875 30.609375 C-29.31859375 31.455 -28.84421875 32.300625 -28.35546875 33.171875 C-27.83984375 33.97625 -27.32421875 34.780625 -26.79296875 35.609375 C-23.58031502 36.14481729 -21.735805 36.17507675 -18.91796875 34.484375 C-17.25719204 31.71641381 -17.40491669 29.77846682 -17.79296875 26.609375 C-18.28796875 26.01125 -18.78296875 25.413125 -19.29296875 24.796875 C-21.0868728 22.18076493 -20.88715787 21.20777604 -20.73046875 18.109375 C-20.56613013 14.32258361 -20.56613013 14.32258361 -22.66796875 11.109375 C-24.70968836 9.58833103 -24.70968836 9.58833103 -26.79296875 8.609375 C-26.24009107 4.8712617 -24.81518513 3.34637268 -21.98046875 0.921875 C-21.29339844 0.31988281 -20.60632813 -0.28210938 -19.8984375 -0.90234375 C-13.48158703 -5.43818796 -6.31416314 -3.82937322 0 0 Z " fill="#040404" transform="translate(202.79296875,101.390625)"/>
<path d="M0 0 C7.58103004 3.26793916 12.42921899 10.01877137 15.69921875 17.3671875 C19.85856778 31.65960085 20.47948391 45.78938612 13.32421875 59.2421875 C9.64248336 65.30171032 5.69234725 70.94127664 -1.30078125 73.3671875 C-6.49270394 74.27492562 -10.86779704 74.00874339 -15.48828125 71.3671875 C-24.277106 65.02858056 -28.99576962 56.87227497 -31.30078125 46.3671875 C-31.37005093 43.60748342 -31.39495485 40.87522708 -31.36328125 38.1171875 C-31.35876953 37.37210938 -31.35425781 36.62703125 -31.34960938 35.859375 C-31.33787371 34.0286111 -31.31993975 32.19788877 -31.30078125 30.3671875 C-29.37890625 30.70703125 -29.37890625 30.70703125 -27.30078125 31.3671875 C-26.68203125 32.635625 -26.68203125 32.635625 -26.05078125 33.9296875 C-24.59937316 36.51874175 -24.59937316 36.51874175 -22.40625 36.80078125 C-19.93568932 36.93297954 -19.93568932 36.93297954 -16.30078125 36.3671875 C-14.14575594 33.13464954 -13.8322199 32.11567827 -14.30078125 28.3671875 C-14.80351562 27.92246094 -15.30625 27.47773437 -15.82421875 27.01953125 C-17.30078125 25.3671875 -17.30078125 25.3671875 -17.453125 23.02734375 C-17.38222656 22.17011719 -17.31132812 21.31289062 -17.23828125 20.4296875 C-17.04751465 16.30953181 -17.04751465 16.30953181 -19.17578125 12.8046875 C-21.22701509 11.34959711 -21.22701509 11.34959711 -23.30078125 10.3671875 C-23.30078125 7.55093159 -22.70625258 5.84153341 -20.875 3.69921875 C-14.63758223 -1.7375367 -7.8476552 -2.15843827 0 0 Z " fill="#030303" transform="translate(303.30078125,97.6328125)"/>
<path d="M0 0 C52.8 0 105.6 0 160 0 C160 0.33 160 0.66 160 1 C159.11441406 1.08636719 158.22882813 1.17273438 157.31640625 1.26171875 C128.81754846 4.49415944 103.04773785 17.34650675 85 40 C83.17444129 42.6162202 81.57345542 45.22022876 80 48 C76.41791001 46.53888435 74.7785949 44.71309573 72.5 41.625 C55.53596946 19.94353188 31.06201294 4.81707566 3.39453125 1.33203125 C2.27433594 1.22246094 1.15414062 1.11289062 0 1 C0 0.67 0 0.34 0 0 Z " fill="#FCFCFC" transform="translate(150,0)"/>
<path d="M0 0 C11.18645117 8.99435872 18.63651201 23.90860552 20.71484375 37.97265625 C22.52006656 57.13769296 19.01801371 74.49902245 7.3125 90.25 C-0.64416786 99.65607984 -11.79399587 107.30636634 -24.26953125 108.51171875 C-37.89203722 109.28222578 -49.24293752 105.43377092 -59.69140625 96.375 C-69.71589232 86.06216154 -78.74253452 69.94790633 -79.05834961 55.29223633 C-78.95664282 51.26525161 -78.80433149 47.24617492 -78.5703125 43.22460938 C-78.24140216 37.94672073 -78.24140216 37.94672073 -80.27001953 33.28662109 C-82.05470269 31.77316618 -82.05470269 31.77316618 -85 30 C-88.90745501 25.06426735 -88.90745501 25.06426735 -89.25 21.125 C-89.1675 20.42375 -89.085 19.7225 -89 19 C-85 19 -85 19 -83.1484375 20.53125 C-82.56320313 21.1809375 -81.97796875 21.830625 -81.375 22.5 C-80.2850221 23.69945166 -79.16594896 24.87425618 -78 26 C-77.34 26 -76.68 26 -76 26 C-74.77463841 23.45229028 -74.77463841 23.45229028 -75 20 C-76.89237916 17.6103212 -78.99045735 15.50652547 -81.1171875 13.32421875 C-83.91772085 9.86712882 -84 7.36771855 -84 3 C-82.68 3 -81.36 3 -80 3 C-77.96484375 5.15234375 -77.96484375 5.15234375 -75.9375 7.9375 C-73.19472017 11.93077878 -73.19472017 11.93077878 -69 14 C-68.690625 12.9790625 -68.690625 12.9790625 -68.375 11.9375 C-64.14675077 2.90442209 -55.08515437 -3.91817474 -46.125 -7.9375 C-29.8117079 -13.48401931 -13.75707464 -9.76917479 0 0 Z M-61.74609375 13.16015625 C-71.72446666 27.26922718 -73.61653827 44.45578448 -71.5 61.3125 C-68.60816664 75.06879066 -60.28824453 88.21041742 -48.8125 96.2265625 C-38.95418732 101.85028178 -29.78459345 102.73310137 -18.82421875 100.29296875 C-7.17796718 96.50753428 2.1543502 87.85364198 7.8125 77.0625 C15.12970914 61.19622833 16.19706678 43.71329432 11 27 C6.09710281 15.04133088 -2.91733048 4.63634051 -14.75048828 -0.80493164 C-32.39594441 -8.1133271 -50.10468132 -1.24185957 -61.74609375 13.16015625 Z " fill="#0B0707" transform="translate(211,87)"/>
<path d="M0 0 C11.81976131 9.77127581 20.56083054 24.3117736 22.375 39.75 C23.75319476 59.87684429 19.99454484 78.13934598 6.625 93.8125 C1.51926628 99.02803444 -4.0666321 102.60520884 -10.625 105.75 C-11.36234375 106.10964844 -12.0996875 106.46929687 -12.859375 106.83984375 C-22.5917736 110.80963792 -34.2173976 109.75827743 -43.84765625 106.07421875 C-59.17436832 98.7665459 -68.82231984 86.36689053 -74.64453125 70.765625 C-76.09643968 66.29999428 -76.75179756 62.24024603 -76.7578125 57.546875 C-76.75910156 56.56589844 -76.76039063 55.58492188 -76.76171875 54.57421875 C-76.75591797 53.05248047 -76.75591797 53.05248047 -76.75 51.5 C-76.75386719 50.50097656 -76.75773438 49.50195312 -76.76171875 48.47265625 C-76.73992024 31.79679237 -72.76081888 17.57346116 -61.08203125 5.015625 C-43.82835627 -11.43498753 -19.58883973 -14.60017087 0 0 Z M-59.625 13.75 C-69.58917107 28.41557572 -73.27720663 44.30079756 -69.93359375 61.8515625 C-66.56138816 75.70723567 -59.76879492 88.5112701 -47.6875 96.6875 C-38.04216511 102.03128082 -27.17686873 103.65174796 -16.4140625 100.94140625 C-4.18639111 96.39925068 4.98706064 86.81473993 10.62109375 75.17578125 C13.93553079 67.24784211 15.75220053 59.6992265 15.6875 51.125 C15.68012817 49.95420898 15.68012817 49.95420898 15.67260742 48.75976562 C15.34003007 32.04562201 10.35240344 19.40477977 -1.625 7.75 C-10.59989599 -0.38677341 -20.24556118 -3.40178806 -32.296875 -2.8203125 C-43.36445636 -1.74306791 -52.97408241 5.10380713 -59.625 13.75 Z " fill="#0A0606" transform="translate(313.625,84.25)"/>
<path d="M0 0 C3.51535737 1.15970552 4.96333002 3.61459808 6.89453125 6.625 C8.7092805 10.41313043 9.16590824 13.43511088 9.14453125 17.625 C9.1496875 18.635625 9.15484375 19.64625 9.16015625 20.6875 C8.88816551 23.6953976 8.15774243 25.89806793 6.89453125 28.625 C8.21453125 28.295 9.53453125 27.965 10.89453125 27.625 C11.01828125 29.4503125 11.01828125 29.4503125 11.14453125 31.3125 C11.52071329 34.44735034 11.70756124 35.40787354 13.83203125 37.875 C16.17875652 41.00396703 16.37239284 42.73818897 16.89453125 46.5625 C17.65960074 52.15922456 18.85350987 55.58397862 22.89453125 59.625 C23.1650574 61.35107444 23.41086731 63.08105017 23.64453125 64.8125 C24.57648793 70.24891395 25.97799511 72.80637727 29.89453125 76.625 C30.88453125 77.615 30.88453125 77.615 31.89453125 78.625 C26.25769762 80.50394454 20.13615951 80.37220942 14.51953125 78.5 C10.1768787 75.39810532 6.99566666 71.59132006 4.89453125 66.625 C4.23453125 66.625 3.57453125 66.625 2.89453125 66.625 C3.42806205 71.16001179 5.14653068 74.01334211 7.89453125 77.625 C9.21011828 78.64823436 10.5383088 79.65626968 11.89453125 80.625 C11.89453125 81.285 11.89453125 81.945 11.89453125 82.625 C6.29468647 82.91464714 2.67789047 82.88175521 -2.10546875 79.625 C-8.62000681 73.41801524 -12.20301019 67.59363264 -12.48046875 58.4375 C-12.51353559 54.1443219 -12.16537676 51.75207672 -9.10546875 48.625 C-8.44546875 48.625 -7.78546875 48.625 -7.10546875 48.625 C-6.11546875 51.925 -5.12546875 55.225 -4.10546875 58.625 C-3.11546875 58.625 -2.12546875 58.625 -1.10546875 58.625 C-1.29882812 57.90957031 -1.4921875 57.19414062 -1.69140625 56.45703125 C-3.0953956 51.08433934 -4.26949787 45.82252433 -4.98046875 40.3125 C-5.68127594 35.31101281 -6.97601856 30.74214207 -8.66796875 26 C-13.78280018 11.33723352 -13.78280018 11.33723352 -11.09765625 5.39453125 C-8.10268907 1.29486307 -5.11918363 -0.46982947 0 0 Z " fill="#FAFAFA" transform="translate(430.10546875,135.375)"/>
<path d="M0 0 C14.86223544 -0.78108099 24.64884484 2.28489543 36 12 C48.39910754 23.57517981 57.29667262 40.14003582 58.10864258 57.29541016 C58.17040202 59.96860295 58.18560766 62.63861839 58.1875 65.3125 C58.19974609 66.21162109 58.21199219 67.11074219 58.22460938 68.03710938 C58.24012174 75.18830892 57.86161482 82.75681709 54 89 C53.01 89.33 52.02 89.66 51 90 C46.42355335 84.38887845 45.35395615 78.19536036 43.75 71.25 C36.88458427 43.27867739 23.79421992 20.66856953 -1 5 C-0.67 3.35 -0.34 1.7 0 0 Z " fill="#FDFDFD" transform="translate(325,23)"/>
<path d="M0 0 C2.6875 1.625 2.6875 1.625 4.6875 3.625 C4.99223506 5.80167898 5.06516005 7.94512861 5.1484375 10.140625 C5.56011176 12.84543689 5.56011176 12.84543689 7.72265625 15.41796875 C10.11465307 19.32220212 10.05026554 22.28223432 9.75 26.6875 C9.42448225 31.92007631 9.64274117 35.19413612 12.6875 39.625 C13.22098798 44.60422113 12.85705197 47.69038376 9.6875 51.625 C3.50719223 56.06214404 -2.89914353 56.25194558 -10.3125 55.625 C-14.05280185 54.02201349 -15.04408465 53.02762302 -17.3125 49.625 C-17.86522442 43.43448648 -17.86522442 43.43448648 -16.2109375 41.01171875 C-13.51058829 39.03924144 -10.88271973 38.61484767 -7.625 37.9375 C-6.44550781 37.68613281 -5.26601563 37.43476563 -4.05078125 37.17578125 C-3.14714844 36.99402344 -2.24351562 36.81226563 -1.3125 36.625 C-1.3125 35.965 -1.3125 35.305 -1.3125 34.625 C-6.55485359 34.41941751 -10.44247064 34.51904136 -15.3125 36.625 C-18.4375 37.0625 -18.4375 37.0625 -21.3125 36.625 C-23.68549332 33.93560757 -24.25422166 32.04127386 -24.75 28.5 C-24.3125 25.625 -24.3125 25.625 -22.7265625 24.05078125 C-19.63130296 22.22267489 -16.77075982 21.63720936 -13.25 20.9375 C-12.02152344 20.68613281 -10.79304688 20.43476563 -9.52734375 20.17578125 C-6.3125 19.625 -6.3125 19.625 -3.3125 19.625 C-3.3125 18.635 -3.3125 17.645 -3.3125 16.625 C-5.25034265 16.76620714 -7.18776955 16.91312873 -9.125 17.0625 C-10.20394531 17.14371094 -11.28289062 17.22492188 -12.39453125 17.30859375 C-15.37239905 17.52712461 -15.37239905 17.52712461 -18.3125 18.625 C-20.50390625 18.828125 -20.50390625 18.828125 -22.875 18.875 C-23.66003906 18.90078125 -24.44507813 18.9265625 -25.25390625 18.953125 C-25.93324219 18.84484375 -26.61257813 18.7365625 -27.3125 18.625 C-30.0018186 14.5910221 -30.1051321 11.36461641 -29.3125 6.625 C-27.63892924 3.34701429 -25.39842473 1.18424166 -22.09765625 -0.515625 C-15.62970932 -2.51134495 -6.34554767 -2.64286023 0 0 Z " fill="#F9F9F9" transform="translate(475.3125,154.375)"/>
<path d="M0 0 C2.36093071 1.18551727 4.59580179 2.42230765 6.80078125 3.875 C6.80078125 5.195 6.80078125 6.515 6.80078125 7.875 C-7.00456366 19.58408864 -23.97439639 21.04531681 -41.19921875 19.875 C-49.56365057 18.69824103 -57.13712852 15.43359793 -64.19921875 10.875 C-60.80468325 5.47460261 -56.13419446 2.83443264 -50.19921875 0.875 C-44.05573551 0.12709769 -38.87386003 0.3012556 -33.19921875 2.875 C-33.85921875 4.855 -34.51921875 6.835 -35.19921875 8.875 C-30.67128075 7.41007888 -27.81832036 4.90322788 -24.19921875 1.875 C-16.87690139 -2.48078651 -8.02628181 -2.82242877 0 0 Z " fill="#B42429" transform="translate(260.19921875,242.125)"/>
<path d="M0 0 C0.69029297 -0.020625 1.38058594 -0.04125 2.09179688 -0.0625 C6.831766 -0.09844289 10.06866375 0.68906683 14.0625 3.25 C15.0625 5.75 15.0625 5.75 15.0625 8.25 C14.4025 9.24 13.7425 10.23 13.0625 11.25 C11.1875 11.578125 11.1875 11.578125 9.0625 11.5 C8.36125 11.48453125 7.66 11.4690625 6.9375 11.453125 C5.0625 11.25 5.0625 11.25 3.0625 10.25 C-3.49626617 9.51858366 -8.63529625 10.05643886 -13.9375 14.25 C-15.97937041 16.11909676 -17.99384723 17.99341994 -19.9453125 19.95703125 C-21.9375 21.25 -21.9375 21.25 -24.6171875 21.01171875 C-26.9375 20.25 -26.9375 20.25 -27.9375 19.25 C-27.9375 14.45216376 -27.16462645 12.04239809 -23.8125 8.5625 C-16.50205748 1.89621532 -9.789329 0.07271554 0 0 Z " fill="#070303" transform="translate(181.9375,46.75)"/>
<path d="M0 0 C3.6156412 2.73965658 6.79834502 5.79834502 10 9 C9.625 11.625 9.625 11.625 9 14 C6.8125 14.70703125 6.8125 14.70703125 4 15 C1.5 13.63671875 1.5 13.63671875 -1 11.6875 C-5.57700215 8.16177803 -9.39996251 5.69360071 -15.3125 5.8125 C-16.08464844 5.82667969 -16.85679687 5.84085938 -17.65234375 5.85546875 C-19.92493791 5.99537887 -22.1253053 6.28112401 -24.375 6.625 C-28 7 -28 7 -31 5 C-30.70902736 1.50832834 -30.24460417 0.23799325 -27.6875 -2.25 C-18.81099642 -8.03004884 -8.47351772 -5.07653372 0 0 Z " fill="#080303" transform="translate(301,48)"/>
<path d="M0 0 C2 1 2 1 3.1875 3.75 C4.04574993 7.18299973 3.97231149 8.66121611 3 12 C1.625 13.89453125 1.625 13.89453125 0 15.8125 C-4.51034165 22.15719113 -3.98159796 29.50116679 -4 37 C-11.75 36.25 -11.75 36.25 -14 34 C-13.82942961 28.00160803 -10.73037209 22.82859911 -8.125 17.5625 C-7.23054841 15.73106526 -6.33729344 13.89904556 -5.4453125 12.06640625 C-5.02411133 11.20289551 -4.60291016 10.33938477 -4.16894531 9.44970703 C-2.68300687 6.33569152 -1.32350357 3.18604998 0 0 Z " fill="#F1F1F1" transform="translate(414,165)"/>
</svg>
